<svg width="48" height="48" viewBox="0 0 48 48" fill="none" xmlns="http://www.w3.org/2000/svg">
<path d="M24.8571 4.03335C26.9931 4 29.1133 4.01734 31.2323 4C31.3028 6.70926 32.3779 9.14774 34.0885 10.9539L34.0859 10.9512C35.927 12.6467 38.3226 13.7459 40.9635 13.9326L41 13.9353V20.6531C38.5052 20.5891 36.1592 20.0008 34.0442 18.9897L34.1511 19.035C33.1282 18.5321 32.2631 18.0159 31.4411 17.4396L31.5089 17.485C31.4933 22.3526 31.5246 27.2202 31.4763 32.0704C31.3419 34.5423 30.5382 36.7966 29.249 38.6789L29.2751 38.6375C27.1196 41.7936 23.628 43.8653 19.6575 43.988H19.6392C19.4788 43.996 19.2896 44 19.0991 44C16.8418 44 14.7319 43.357 12.9339 42.2405L12.9861 42.2712C9.7137 40.2583 7.45641 36.814 7.03887 32.8081L7.03365 32.7534C7.00103 31.9197 6.98538 31.086 7.018 30.2696C7.65734 23.8946 12.8817 18.963 19.2322 18.963C19.9459 18.963 20.6452 19.0257 21.325 19.1444L21.252 19.1337C21.2846 21.6002 21.1867 24.068 21.1867 26.5345C20.6348 26.3304 19.9981 26.2117 19.3339 26.2117C16.8966 26.2117 14.8233 27.8044 14.056 30.0281L14.0443 30.0682C13.8708 30.6378 13.7703 31.2927 13.7703 31.9704C13.7703 32.2452 13.7873 32.5173 13.8186 32.7841L13.816 32.7521C14.2492 35.4814 16.5378 37.541 19.2974 37.541C19.377 37.541 19.4553 37.5397 19.5336 37.5357H19.5218C21.4307 37.477 23.0878 36.4271 24.0247 34.8757L24.0377 34.8517C24.3861 34.3555 24.6249 33.7552 24.7045 33.1029L24.7058 33.0842C24.8689 30.1002 24.8036 27.1335 24.8193 24.1494C24.8349 17.4316 24.8036 10.7298 24.8519 4.02935L24.8571 4.03335Z" fill="#F2F2F2"/>
</svg>
