<svg width="48" height="48" viewBox="0 0 48 48" fill="none" xmlns="http://www.w3.org/2000/svg">
<path d="M31.9941 4H15.8791C12.7293 4.0024 9.70921 5.25472 7.48197 7.48197C5.25472 9.70921 4.0024 12.7293 4 15.8791V31.9941C4.00192 35.1442 5.25403 38.1648 7.48133 40.3924C9.70863 42.62 12.729 43.8726 15.8791 43.875H31.9941C35.144 43.8721 38.1641 42.6194 40.3913 40.3919C42.6185 38.1643 43.8708 35.144 43.8732 31.9941V15.8791C43.8717 12.729 42.6197 9.70836 40.3923 7.48091C38.1648 5.25345 35.1442 4.00144 31.9941 4ZM39.8639 31.9941C39.8635 34.0811 39.0342 36.0826 37.5584 37.5584C36.0826 39.0342 34.0811 39.8635 31.9941 39.8639H15.8791C14.8457 39.8639 13.8224 39.6604 12.8677 39.2648C11.913 38.8693 11.0456 38.2896 10.3149 37.5588C9.58428 36.828 9.00476 35.9604 8.60946 35.0056C8.21416 34.0508 8.01082 33.0275 8.01106 31.9941V15.8791C8.01082 14.8458 8.21418 13.8226 8.6095 12.8679C9.00482 11.9132 9.58437 11.0457 10.315 10.315C11.0457 9.58437 11.9132 9.00482 12.8679 8.6095C13.8226 8.21418 14.8458 8.01082 15.8791 8.01106H31.9941C34.0807 8.01154 36.0816 8.84065 37.5571 10.3161C39.0325 11.7915 39.8616 13.7925 39.8621 15.8791L39.8639 31.9941Z" fill="#F2F2F2"/>
<path d="M23.9376 13.628C18.2499 13.628 13.6281 18.2516 13.6281 23.9375C13.6281 29.6233 18.2517 34.247 23.9376 34.247C29.6234 34.247 34.2471 29.6233 34.2471 23.9375C34.2471 18.2516 29.6252 13.628 23.9376 13.628ZM23.9376 30.2359C22.2671 30.2361 20.665 29.5728 19.4836 28.3918C18.3023 27.2107 17.6384 25.6088 17.6382 23.9384C17.638 22.2679 18.3013 20.6658 19.4823 19.4844C20.6634 18.3031 22.2653 17.6393 23.9357 17.639C25.6062 17.6388 27.2083 18.3021 28.3897 19.4831C29.571 20.6642 30.2348 22.2661 30.2351 23.9365C30.2353 25.607 29.572 27.2091 28.391 28.3905C27.2099 29.5718 25.608 30.2357 23.9376 30.2359ZM34.2688 11.2336C34.7573 11.234 35.2346 11.3791 35.6406 11.6507C36.0466 11.9223 36.363 12.3082 36.5497 12.7595C36.7365 13.2109 36.7852 13.7074 36.6899 14.1865C36.5945 14.6655 36.3592 15.1056 36.0139 15.4509C35.6685 15.7963 35.2284 16.0316 34.7494 16.127C34.2703 16.2223 33.7738 16.1736 33.3224 15.9868C32.8711 15.8001 32.4852 15.4837 32.2137 15.0777C31.9421 14.6717 31.7969 14.1943 31.7966 13.7059C31.7966 12.3429 32.7209 11.2336 34.2688 11.2336Z" fill="#F2F2F2"/>
</svg>
