<svg width="48" height="48" viewBox="0 0 48 48" fill="none" xmlns="http://www.w3.org/2000/svg">
<path d="M24.0029 10C24.0637 10 37.9266 10.0014 41.3906 10.9248C43.3056 11.4341 44.8144 12.9353 45.3262 14.8408C46.254 18.2876 46.2559 25.4708 46.2559 25.5C46.2559 25.5 46.2559 32.7058 45.3262 36.1592C44.8144 38.0647 43.3056 39.5659 41.3906 40.0752C37.9267 40.9986 24.0637 41.001 24.0029 41.001C24.0029 41.001 10.0851 41.0008 6.61426 40.0752C4.69937 39.5659 3.19148 38.0646 2.67969 36.1592C1.74991 32.7058 1.75 25.5 1.75 25.5C1.75 25.4708 1.75184 18.2876 2.67969 14.8408C3.19148 12.9354 4.69935 11.4341 6.61426 10.9248C10.0851 9.99923 24.0029 10 24.0029 10ZM19.5518 32.1436L31.1152 25.5L19.5518 18.8574V32.1436Z" fill="#F2F2F2"/>
</svg>
