<svg width="348" height="158" viewBox="0 0 348 158" fill="none" xmlns="http://www.w3.org/2000/svg">
<g clip-path="url(#clip0_93_2)">
<path fill-rule="evenodd" clip-rule="evenodd" d="M341.402 1.20611C343.109 2.11069 344.516 3.21628 345.621 4.72392C346.726 6.23155 347.429 7.9402 347.83 9.74936C348.132 11.5585 348.031 13.3677 347.529 15.1768C347.529 15.2774 347.529 15.2774 347.529 15.2774C346.022 18.3931 281.432 150.663 281.231 151.165C280.227 153.276 278.72 154.985 276.812 156.191C274.803 157.397 272.593 158 270.383 158H196.953C194.844 158 192.734 157.497 190.826 156.392C189.017 155.286 187.511 153.678 186.406 151.869C186.004 151.165 182.187 142.924 182.187 142.924L164.407 107.243C164.407 107.243 143.111 150.663 142.91 151.065C142.006 153.176 140.399 154.884 138.491 156.191C136.582 157.397 134.372 158 132.062 158H58.632C56.3216 158 54.1117 157.397 52.1027 156.09C50.1941 154.884 48.5869 153.075 47.6828 150.964C47.4819 150.663 43.9662 142.924 43.9662 142.924L44.0666 143.125L0.470864 54.8779V54.7774C-0.0313909 53.0687 -0.131842 51.159 0.169511 49.3499C0.470864 47.5407 1.27447 45.7315 2.37943 44.3244C3.48439 42.8168 4.89071 41.6107 6.59838 40.8066C8.20559 40.0025 10.1142 39.6005 11.9223 39.6005H71.0879C73.3983 39.6005 75.7087 40.2036 77.6172 41.5102C79.6263 42.7163 81.133 44.5254 82.1375 46.6361C82.238 46.9377 90.5754 63.8232 94.7944 72.3664C94.8613 72.5004 94.9283 72.6009 94.9953 72.6679C95.1292 72.802 95.2631 72.869 95.3971 72.869C95.531 72.869 95.6649 72.802 95.7989 72.6679C95.9328 72.6009 95.9998 72.5004 95.9998 72.3664L112.976 38.1934C112.976 38.1934 116.894 29.8511 117.295 29.1476C118.4 27.3384 119.907 25.8308 121.715 24.7252C123.523 23.7201 125.633 23.117 127.742 23.117H201.272C203.382 23.117 205.391 23.7201 207.3 24.7252C209.108 25.8308 210.614 27.3384 211.719 29.1476C212.021 29.7506 226.787 60.0038 233.618 74.0751V73.874L265.461 8.34224C267.671 3.51781 271.689 0 276.912 0H336.178C337.986 0 339.794 0.402036 341.402 1.20611ZM60.9424 143.627C61.0428 143.426 93.589 77.5929 93.589 77.5929C93.6559 77.4589 93.6894 77.3584 93.6894 77.2913C93.6894 77.1573 93.6559 77.0233 93.589 76.8893C88.7673 67.1399 79.5258 48.3448 79.4254 47.9427C78.7222 46.4351 77.5168 45.028 76.1105 44.1234C74.6037 43.2188 72.896 42.7163 71.1884 42.7163H11.9223C10.516 42.7163 9.10965 43.0178 7.90424 43.6209C6.59838 44.3244 5.49341 45.229 4.68981 46.3346C3.8862 47.4402 3.38394 48.6463 3.08259 49.9529C2.88169 51.159 2.98214 52.5662 3.28349 53.7723V53.8728L46.5779 141.316C46.5779 141.316 49.5914 146.743 49.5914 146.944C49.6584 147.078 49.7588 147.212 49.8928 147.346C50.0267 147.48 50.1606 147.614 50.2946 147.748H50.4955C50.9642 148.083 51.5 148.251 52.1027 148.251C58.9334 148.251 60.8419 143.828 60.9424 143.627ZM231.709 77.8944C231.776 77.7604 231.81 77.6264 231.81 77.4924C231.81 77.3584 231.776 77.2578 231.709 77.1908C224.376 62.215 209.71 31.9618 208.907 30.5547C208.103 29.2481 206.998 28.042 205.592 27.3384C204.286 26.5344 202.679 26.1323 201.172 26.1323H127.742C126.537 26.1323 125.331 26.4338 124.126 27.0369C123.021 27.5394 122.017 28.243 121.213 29.2481C121.146 29.3151 121.079 29.4156 121.012 29.5496C121.012 29.6836 121.046 29.8176 121.113 29.9517C121.18 30.0857 121.28 30.1862 121.414 30.2532C121.481 30.3872 121.581 30.4542 121.715 30.4542C124.026 30.3537 126.336 30.9567 128.345 32.0623C130.354 33.1679 131.961 34.8766 133.066 36.8868L167.22 106.037L184.899 141.617C185.602 142.622 186.808 145.135 188.113 147.346C188.247 147.48 188.415 147.581 188.616 147.648C190.725 148.15 192.935 147.949 194.944 147.145C196.953 146.24 198.56 144.833 199.665 142.924C199.665 142.823 199.665 142.823 199.665 142.823L200.469 141.416L231.81 77.8944H231.709Z" fill="url(#paint0_linear_93_2)"/>
</g>
<defs>
<linearGradient id="paint0_linear_93_2" x1="347.529" y1="-1.10844e-05" x2="-0.0997315" y2="157.648" gradientUnits="userSpaceOnUse">
<stop stop-color="#F2289F" stop-opacity="0.05"/>
<stop offset="1" stop-color="#670AEA" stop-opacity="0.05"/>
</linearGradient>
<clipPath id="clip0_93_2">
<rect width="348" height="158" fill="white"/>
</clipPath>
</defs>
</svg>
