<svg width="348" height="158" viewBox="0 0 348 158" fill="none" xmlns="http://www.w3.org/2000/svg">
<g clip-path="url(#clip0_520_5)">
<g opacity="0.1">
<path fill-rule="evenodd" clip-rule="evenodd" d="M341.402 1.25082C343.109 2.15488 344.516 3.25984 345.621 4.76661C346.726 6.27337 347.429 7.98104 347.83 9.78916C348.132 11.5973 348.031 13.4054 347.529 15.2135C347.529 15.314 347.529 15.314 347.529 15.314C346.022 18.4279 281.432 150.621 281.231 151.124C280.227 153.233 278.72 154.941 276.812 156.146C274.803 157.352 272.593 157.954 270.383 157.954H196.953C194.844 157.954 192.734 157.452 190.826 156.347C189.017 155.242 187.511 153.635 186.406 151.827C186.004 151.124 182.187 142.887 182.187 142.887L164.407 107.227C164.407 107.227 143.111 150.621 142.91 151.023C142.006 153.133 140.399 154.84 138.491 156.146C136.582 157.352 134.372 157.954 132.062 157.954H58.632C56.3216 157.954 54.1117 157.352 52.1027 156.046C50.1941 154.84 48.5869 153.032 47.6828 150.923C47.4819 150.621 43.9662 142.887 43.9662 142.887L44.0666 143.088L0.470864 54.8917V54.7912C-0.0313909 53.0835 -0.131842 51.175 0.169511 49.3669C0.470864 47.5587 1.27447 45.7506 2.37943 44.3443C3.48439 42.8375 4.89071 41.6321 6.59838 40.8285C8.20559 40.0249 10.1142 39.6231 11.9223 39.6231H71.0879C73.3983 39.6231 75.7087 40.2258 77.6172 41.5317C79.6263 42.7371 81.133 44.5452 82.1375 46.6547C82.238 46.956 90.5754 63.8318 94.7944 72.3701C94.8613 72.5041 94.9283 72.6045 94.9953 72.6715C95.1292 72.8054 95.2631 72.8724 95.3971 72.8724C95.531 72.8724 95.6649 72.8054 95.7989 72.6715C95.9328 72.6045 95.9998 72.5041 95.9998 72.3701L112.976 38.2168C112.976 38.2168 116.894 29.8794 117.295 29.1762C118.4 27.3681 119.907 25.8613 121.715 24.7564C123.523 23.7519 125.633 23.1491 127.742 23.1491H201.272C203.382 23.1491 205.391 23.7519 207.3 24.7564C209.108 25.8613 210.614 27.3681 211.719 29.1762C212.021 29.7789 226.787 60.0147 233.618 74.0778V73.8769L265.461 8.38284C267.671 3.5612 271.689 0.0454102 276.912 0.0454102H336.178C337.986 0.0454102 339.794 0.447214 341.402 1.25082ZM60.9424 143.59C61.0428 143.389 93.589 77.5936 93.589 77.5936C93.6559 77.4597 93.6894 77.3592 93.6894 77.2922C93.6894 77.1583 93.6559 77.0244 93.589 76.8904C88.7673 67.1467 79.5258 48.3623 79.4254 47.9605C78.7222 46.4538 77.5168 45.0475 76.1105 44.1434C74.6037 43.2393 72.896 42.7371 71.1884 42.7371H11.9223C10.516 42.7371 9.10965 43.0384 7.90424 43.6412C6.59838 44.3443 5.49341 45.2484 4.68981 46.3533C3.8862 47.4583 3.38394 48.6637 3.08259 49.9696C2.88169 51.175 2.98214 52.5813 3.28349 53.7867V53.8872L46.5779 141.28C46.5779 141.28 49.5914 146.704 49.5914 146.905C49.6584 147.039 49.7588 147.173 49.8928 147.307C50.0267 147.441 50.1606 147.574 50.2946 147.708H50.4955C50.9642 148.043 51.5 148.211 52.1027 148.211C58.9334 148.211 60.8419 143.791 60.9424 143.59ZM231.709 77.8949C231.776 77.761 231.81 77.6271 231.81 77.4931C231.81 77.3592 231.776 77.2588 231.709 77.1918C224.376 62.2246 209.71 31.9888 208.907 30.5825C208.103 29.2767 206.998 28.0712 205.592 27.3681C204.286 26.5645 202.679 26.1627 201.172 26.1627H127.742C126.537 26.1627 125.331 26.464 124.126 27.0667C123.021 27.569 122.017 28.2721 121.213 29.2767C121.146 29.3436 121.079 29.4441 121.012 29.578C121.012 29.7119 121.046 29.8459 121.113 29.9798C121.18 30.1137 121.28 30.2142 121.414 30.2812C121.481 30.4151 121.581 30.4821 121.715 30.4821C124.026 30.3816 126.336 30.9843 128.345 32.0893C130.354 33.1942 131.961 34.9019 133.066 36.9109L167.22 106.021L184.899 141.581C185.602 142.585 186.808 145.097 188.113 147.307C188.247 147.441 188.415 147.541 188.616 147.608C190.725 148.11 192.935 147.909 194.944 147.106C196.953 146.202 198.56 144.795 199.665 142.887C199.665 142.786 199.665 142.786 199.665 142.786L200.469 141.38L231.81 77.8949H231.709Z" fill="url(#paint0_linear_520_5)"/>
</g>
</g>
<defs>
<linearGradient id="paint0_linear_520_5" x1="347.529" y1="0.0453991" x2="-0.0313783" y2="157.754" gradientUnits="userSpaceOnUse">
<stop stop-color="#F2289F"/>
<stop offset="1" stop-color="#670AEA"/>
</linearGradient>
<clipPath id="clip0_520_5">
<rect width="348" height="158" fill="white"/>
</clipPath>
</defs>
</svg>
