<svg width="107" height="18" viewBox="0 0 107 18" fill="none" xmlns="http://www.w3.org/2000/svg">
<path d="M7.93356 1.05C8.43356 -0.35 10.4336 -0.35 10.9336 1.05L12.5335 5.4499L17.3335 5.6501C18.8335 5.6501 19.4336 7.65 18.2336 8.55L14.5335 11.3498L15.8335 15.8498C16.3335 17.2498 14.6335 18.4501 13.3335 17.6501L9.43356 14.9499L5.53354 17.6501C4.23354 18.4501 2.63354 17.2498 3.03354 15.8498L4.33353 11.3498L0.633514 8.55C-0.566486 7.65 0.033514 5.6501 1.63351 5.6501L6.33353 5.4499L7.93356 1.05Z" fill="white"/>
<path d="M29.9336 1.05C30.4336 -0.35 32.4336 -0.35 32.9336 1.05L34.5335 5.4499L39.3335 5.6501C40.8335 5.6501 41.4336 7.65 40.2336 8.55L36.5335 11.3498L37.8335 15.8498C38.3335 17.2498 36.6335 18.4501 35.3335 17.6501L31.4336 14.9499L27.5335 17.6501C26.2335 18.4501 24.6335 17.2498 25.0335 15.8498L26.3335 11.3498L22.6335 8.55C21.4335 7.65 22.0335 5.6501 23.6335 5.6501L28.3335 5.4499L29.9336 1.05Z" fill="white"/>
<path d="M51.9336 1.05C52.4336 -0.35 54.4336 -0.35 54.9336 1.05L56.5335 5.4499L61.3335 5.6501C62.8335 5.6501 63.4336 7.65 62.2336 8.55L58.5335 11.3498L59.8335 15.8498C60.3335 17.2498 58.6335 18.4501 57.3335 17.6501L53.4336 14.9499L49.5335 17.6501C48.2335 18.4501 46.6335 17.2498 47.0335 15.8498L48.3335 11.3498L44.6335 8.55C43.4335 7.65 44.0335 5.6501 45.6335 5.6501L50.3335 5.4499L51.9336 1.05Z" fill="white"/>
<path d="M73.9336 1.05C74.4336 -0.35 76.4336 -0.35 76.9336 1.05L78.5335 5.4499L83.3335 5.6501C84.8335 5.6501 85.4336 7.65 84.2336 8.55L80.5335 11.3498L81.8335 15.8498C82.3335 17.2498 80.6335 18.4501 79.3335 17.6501L75.4336 14.9499L71.5335 17.6501C70.2335 18.4501 68.6335 17.2498 69.0335 15.8498L70.3335 11.3498L66.6335 8.55C65.4335 7.65 66.0335 5.6501 67.6335 5.6501L72.3335 5.4499L73.9336 1.05Z" fill="white"/>
<path d="M95.9336 1.05C96.4336 -0.35 98.4336 -0.35 98.9336 1.05L100.534 5.4499L105.334 5.6501C106.834 5.6501 107.434 7.65 106.234 8.55L102.534 11.3498L103.834 15.8498C104.334 17.2498 102.634 18.4501 101.334 17.6501L97.4336 14.9499L93.5335 17.6501C92.2335 18.4501 90.6335 17.2498 91.0335 15.8498L92.3335 11.3498L88.6335 8.55C87.4335 7.65 88.0335 5.6501 89.6335 5.6501L94.3335 5.4499L95.9336 1.05Z" fill="white"/>
</svg>
