<svg width="16" height="16" viewBox="0 0 16 16" fill="none" xmlns="http://www.w3.org/2000/svg">
<g clip-path="url(#clip0_0_10)">
<path fill-rule="evenodd" clip-rule="evenodd" d="M15.193 4.61381C15.2664 4.65265 15.3268 4.70013 15.3743 4.76488C15.4218 4.82962 15.452 4.903 15.4693 4.98069C15.4822 5.05838 15.4779 5.13607 15.4563 5.21377C15.4563 5.21808 15.4563 5.21808 15.4563 5.21808C15.3916 5.35189 12.6162 11.0321 12.6076 11.0537C12.5644 11.1443 12.4997 11.2177 12.4177 11.2695C12.3314 11.3213 12.2364 11.3472 12.1414 11.3472H8.98626C8.89562 11.3472 8.80498 11.3256 8.72297 11.2781C8.64528 11.2306 8.58054 11.1616 8.53306 11.0839C8.51579 11.0537 8.35177 10.6997 8.35177 10.6997L7.5878 9.16746C7.5878 9.16746 6.67275 11.0321 6.66412 11.0493C6.62527 11.14 6.55621 11.2134 6.4742 11.2695C6.39219 11.3213 6.29724 11.3472 6.19796 11.3472H3.04278C2.94351 11.3472 2.84855 11.3213 2.76222 11.2652C2.68022 11.2134 2.61116 11.1357 2.57231 11.045C2.56368 11.0321 2.41261 10.6997 2.41261 10.6997L2.41692 10.7084L0.54367 6.91869V6.91437C0.522089 6.84099 0.517772 6.75899 0.530721 6.68129C0.54367 6.6036 0.5782 6.52591 0.625679 6.46548C0.673158 6.40074 0.733585 6.34894 0.806961 6.31441C0.876022 6.27988 0.95803 6.26262 1.03572 6.26262H3.578C3.67727 6.26262 3.77654 6.28851 3.85855 6.34462C3.94488 6.39642 4.00962 6.47411 4.05279 6.56475C4.0571 6.5777 4.41535 7.30283 4.59663 7.66972C4.59951 7.67547 4.60239 7.67979 4.60527 7.68266C4.61102 7.68842 4.61678 7.6913 4.62253 7.6913C4.62829 7.6913 4.63404 7.68842 4.6398 7.68266C4.64555 7.67979 4.64843 7.67547 4.64843 7.66972L5.37788 6.20219C5.37788 6.20219 5.54621 5.84394 5.56347 5.81373C5.61095 5.73603 5.6757 5.67129 5.75339 5.62381C5.83108 5.58065 5.92172 5.55475 6.01236 5.55475H9.17186C9.2625 5.55475 9.34883 5.58065 9.43084 5.62381C9.50853 5.67129 9.57327 5.73603 9.62075 5.81373C9.6337 5.83962 10.2682 7.13882 10.5617 7.74309V7.73446L11.9299 4.92026C12.0249 4.71308 12.1976 4.56201 12.422 4.56201H14.9686C15.0463 4.56201 15.124 4.57928 15.193 4.61381ZM3.14206 10.7299C3.14637 10.7213 4.54484 7.89416 4.54484 7.89416C4.54772 7.88841 4.54915 7.88409 4.54915 7.88121C4.54915 7.87546 4.54772 7.8697 4.54484 7.86395C4.33766 7.44527 3.94056 6.63813 3.93625 6.62087C3.90603 6.55612 3.85424 6.49569 3.79381 6.45685C3.72907 6.418 3.65569 6.39642 3.58231 6.39642H1.03572C0.975295 6.39642 0.914868 6.40937 0.863073 6.43527C0.806961 6.46548 0.759483 6.50433 0.724953 6.55181C0.690423 6.59928 0.668841 6.65108 0.655893 6.70719C0.64726 6.75899 0.651576 6.81941 0.664525 6.87121V6.87552L2.52483 10.6307C2.52483 10.6307 2.65432 10.8637 2.65432 10.8724C2.6572 10.8781 2.66151 10.8839 2.66727 10.8896C2.67302 10.8954 2.67878 10.9012 2.68453 10.9069H2.69316C2.71331 10.9213 2.73633 10.9285 2.76222 10.9285C3.05573 10.9285 3.13774 10.7386 3.14206 10.7299ZM10.4797 7.90711C10.4826 7.90135 10.484 7.8956 10.484 7.88984C10.484 7.88409 10.4826 7.87977 10.4797 7.8769C10.1646 7.23377 9.53443 5.93458 9.4999 5.87415C9.46537 5.81804 9.41789 5.76625 9.35746 5.73603C9.30135 5.7015 9.23229 5.68424 9.16755 5.68424H6.01236C5.96057 5.68424 5.90877 5.69719 5.85698 5.72308C5.8095 5.74467 5.76634 5.77488 5.73181 5.81804C5.72893 5.82092 5.72605 5.82524 5.72318 5.83099C5.72318 5.83675 5.72461 5.8425 5.72749 5.84826C5.73037 5.85401 5.73469 5.85833 5.74044 5.8612C5.74332 5.86696 5.74763 5.86984 5.75339 5.86984C5.85266 5.86552 5.95194 5.89142 6.03826 5.9389C6.12459 5.98638 6.19365 6.05975 6.24113 6.14608L7.70865 9.11566L8.46831 10.6436C8.49853 10.6868 8.55032 10.7947 8.60643 10.8896C8.61219 10.8954 8.61938 10.8997 8.62802 10.9026C8.71866 10.9242 8.81361 10.9155 8.89994 10.881C8.98626 10.8422 9.05532 10.7817 9.1028 10.6997C9.1028 10.6954 9.1028 10.6954 9.1028 10.6954L9.13733 10.635L10.484 7.90711H10.4797Z" fill="url(#paint0_linear_0_10)"/>
</g>
<defs>
<linearGradient id="paint0_linear_0_10" x1="15.4563" y1="4.56201" x2="0.522089" y2="11.3385" gradientUnits="userSpaceOnUse">
<stop stop-color="#F2289F"/>
<stop offset="1" stop-color="#670AEA"/>
</linearGradient>
<clipPath id="clip0_0_10">
<rect width="16" height="16" fill="white"/>
</clipPath>
</defs>
</svg>
