<?xml version="1.0" encoding="UTF-8"?><!DOCTYPE svg PUBLIC "-//W3C//DTD SVG 1.1//EN" "http://www.w3.org/Graphics/SVG/1.1/DTD/svg11.dtd"><svg xmlns="http://www.w3.org/2000/svg" xmlns:xlink="http://www.w3.org/1999/xlink"><symbol id="arrow_back" viewBox="0 -960 960 960"><g fill="#1f1f1f"><path d="m313-440 224 224-57 56-320-320 320-320 57 56-224 224h487v80H313Z"/></g></symbol><symbol id="arrow_forward" viewBox="0 -960 960 960"><g fill="#1f1f1f"><path d="M647-440H160v-80h487L423-744l57-56 320 320-320 320-57-56 224-224Z"/></g></symbol><symbol id="assignment" viewBox="0 -960 960 960"><g fill="#1f1f1f"><path d="M200-120q-33 0-56.5-23.5T120-200v-560q0-33 23.5-56.5T200-840h168q13-36 43.5-58t68.5-22q38 0 68.5 22t43.5 58h168q33 0 56.5 23.5T840-760v560q0 33-23.5 56.5T760-120H200Zm0-80h560v-560H200v560Zm80-80h280v-80H280v80Zm0-160h400v-80H280v80Zm0-160h400v-80H280v80Zm200-190q13 0 21.5-8.5T510-820q0-13-8.5-21.5T480-850q-13 0-21.5 8.5T450-820q0 13 8.5 21.5T480-790ZM200-200v-560 560Z"/></g></symbol><symbol id="bookmark_heart" viewBox="0 -960 960 960"><g fill="#1f1f1f"><path d="M480-388q51-47 82.5-77.5T611-518q17-22 23-38.5t6-35.5q0-36-26-62t-62-26q-21 0-40.5 8.5T480-648q-12-15-31-23.5t-41-8.5q-36 0-62 26t-26 62q0 19 5.5 35t22.5 38q17 22 48 52.5t84 78.5ZM200-120v-640q0-33 23.5-56.5T280-840h400q33 0 56.5 23.5T760-760v640L480-240 200-120Zm80-122 200-86 200 86v-518H280v518Zm0-518h400-400Z"/></g></symbol><symbol id="call" viewBox="0 -960 960 960"><g fill="#1f1f1f"><path d="M798-120q-125 0-247-54.5T329-329Q229-429 174.5-551T120-798q0-18 12-30t30-12h162q14 0 25 9.5t13 22.5l26 140q2 16-1 27t-11 19l-97 98q20 37 47.5 71.5T387-386q31 31 65 57.5t72 48.5l94-94q9-9 23.5-13.5T670-390l138 28q14 4 23 14.5t9 23.5v162q0 18-12 30t-30 12ZM241-600l66-66-17-94h-89q5 41 14 81t26 79Zm358 358q39 17 79.5 27t81.5 13v-88l-94-19-67 67ZM241-600Zm358 358Z"/></g></symbol><symbol id="check_circle" viewBox="0 -960 960 960"><g fill="#1f1f1f"><path d="m424-296 282-282-56-56-226 226-114-114-56 56 170 170Zm56 216q-83 0-156-31.5T197-197q-54-54-85.5-127T80-480q0-83 31.5-156T197-763q54-54 127-85.5T480-880q83 0 156 31.5T763-763q54 54 85.5 127T880-480q0 83-31.5 156T763-197q-54 54-127 85.5T480-80Zm0-80q134 0 227-93t93-227q0-134-93-227t-227-93q-134 0-227 93t-93 227q0 134 93 227t227 93Zm0-320Z"/></g></symbol><symbol id="cloud_upload" viewBox="0 -960 960 960"><g fill="#1f1f1f"><path d="M260-160q-91 0-155.5-63T40-377q0-78 47-139t123-78q25-92 100-149t170-57q117 0 198.5 81.5T760-520q69 8 114.5 59.5T920-340q0 75-52.5 127.5T740-160H520q-33 0-56.5-23.5T440-240v-206l-64 62-56-56 160-160 160 160-56 56-64-62v206h220q42 0 71-29t29-71q0-42-29-71t-71-29h-60v-80q0-83-58.5-141.5T480-720q-83 0-141.5 58.5T280-520h-20q-58 0-99 41t-41 99q0 58 41 99t99 41h100v80H260Zm220-280Z"/></g></symbol><symbol id="content_cut" viewBox="0 -960 960 960"><g fill="#1f1f1f"><path d="M760-120 480-400l-94 94q8 15 11 32t3 34q0 66-47 113T240-80q-66 0-113-47T80-240q0-66 47-113t113-47q17 0 34 3t32 11l94-94-94-94q-15 8-32 11t-34 3q-66 0-113-47T80-720q0-66 47-113t113-47q66 0 113 47t47 113q0 17-3 34t-11 32l494 494v40H760ZM600-520l-80-80 240-240h120v40L600-520ZM240-640q33 0 56.5-23.5T320-720q0-33-23.5-56.5T240-800q-33 0-56.5 23.5T160-720q0 33 23.5 56.5T240-640Zm240 180q8 0 14-6t6-14q0-8-6-14t-14-6q-8 0-14 6t-6 14q0 8 6 14t14 6ZM240-160q33 0 56.5-23.5T320-240q0-33-23.5-56.5T240-320q-33 0-56.5 23.5T160-240q0 33 23.5 56.5T240-160Z"/></g></symbol><symbol id="delivery_truck_speed" viewBox="0 -960 960 960"><g fill="#1f1f1f"><path d="M280-160q-50 0-85-35t-35-85H60l18-80h113q17-19 40-29.5t49-10.5q26 0 49 10.5t40 29.5h167l84-360H182l4-17q6-28 27.5-45.5T264-800h456l-37 160h117l120 160-40 200h-80q0 50-35 85t-85 35q-50 0-85-35t-35-85H400q0 50-35 85t-85 35Zm357-280h193l4-21-74-99h-95l-28 120Zm-19-273 2-7-84 360 2-7 34-146 46-200ZM20-427l20-80h220l-20 80H20Zm80-146 20-80h260l-20 80H100Zm180 333q17 0 28.5-11.5T320-280q0-17-11.5-28.5T280-320q-17 0-28.5 11.5T240-280q0 17 11.5 28.5T280-240Zm400 0q17 0 28.5-11.5T720-280q0-17-11.5-28.5T680-320q-17 0-28.5 11.5T640-280q0 17 11.5 28.5T680-240Z"/></g></symbol><symbol id="diamond_shine" viewBox="0 -960 960 960"><g fill="#1f1f1f"><path d="M480-80 120-436l200-244h320l200 244L480-80ZM183-680l-85-85 57-56 85 85-57 56Zm257-80v-120h80v120h-80Zm335 80-57-57 85-85 57 57-85 85ZM480-192l210-208H270l210 208ZM358-600l-99 120h442l-99-120H358Z"/></g></symbol><symbol id="diversity_1" viewBox="0 -960 960 960"><g fill="#1f1f1f"><path d="M38-428q-18-36-28-73T0-576q0-112 76-188t188-76q63 0 120 26.5t96 73.5q39-47 96-73.5T696-840q112 0 188 76t76 188q0 38-10 75t-28 73q-11-19-26-34t-35-24q9-23 14-45t5-45q0-78-53-131t-131-53q-81 0-124.5 44.5T480-616q-48-56-91.5-100T264-760q-78 0-131 53T80-576q0 23 5 45t14 45q-20 9-35 24t-26 34ZM0-80v-63q0-44 44.5-70.5T160-240q13 0 25 .5t23 2.5q-14 20-21 43t-7 49v65H0Zm240 0v-65q0-65 66.5-105T480-290q108 0 174 40t66 105v65H240Zm540 0v-65q0-26-6.5-49T754-237q11-2 22.5-2.5t23.5-.5q72 0 116 26.5t44 70.5v63H780ZM480-210q-57 0-102 15t-53 35h311q-9-20-53.5-35T480-210Zm-320-70q-33 0-56.5-23.5T80-360q0-34 23.5-57t56.5-23q34 0 57 23t23 57q0 33-23 56.5T160-280Zm640 0q-33 0-56.5-23.5T720-360q0-34 23.5-57t56.5-23q34 0 57 23t23 57q0 33-23 56.5T800-280Zm-320-40q-50 0-85-35t-35-85q0-51 35-85.5t85-34.5q51 0 85.5 34.5T600-440q0 50-34.5 85T480-320Zm0-160q-17 0-28.5 11.5T440-440q0 17 11.5 28.5T480-400q17 0 28.5-11.5T520-440q0-17-11.5-28.5T480-480Zm0 40Zm1 280Z"/></g></symbol><symbol id="east" viewBox="0 -960 960 960"><g fill="#1f1f1f"><path d="m600-200-57-56 184-184H80v-80h647L544-704l56-56 280 280-280 280Z"/></g></symbol><symbol id="edit_square" viewBox="0 -960 960 960"><g fill="#1f1f1f"><path d="M200-120q-33 0-56.5-23.5T120-200v-560q0-33 23.5-56.5T200-840h357l-80 80H200v560h560v-278l80-80v358q0 33-23.5 56.5T760-120H200Zm280-360ZM360-360v-170l367-367q12-12 27-18t30-6q16 0 30.5 6t26.5 18l56 57q11 12 17 26.5t6 29.5q0 15-5.5 29.5T897-728L530-360H360Zm481-424-56-56 56 56ZM440-440h56l232-232-28-28-29-28-231 231v57Zm260-260-29-28 29 28 28 28-28-28Z"/></g></symbol><symbol id="electric_bolt" viewBox="0 -960 960 960"><g fill="#1f1f1f"><path d="m280-80 160-300-320-40 480-460h80L520-580l320 40L360-80h-80Zm222-247 161-154-269-34 63-117-160 154 268 33-63 118Zm-22-153Z"/></g></symbol><symbol id="format_quote" viewBox="0 -960 960 960"><g fill="#1f1f1f"><path d="m228-240 92-160q-66 0-113-47t-47-113q0-66 47-113t113-47q66 0 113 47t47 113q0 23-5.5 42.5T458-480L320-240h-92Zm360 0 92-160q-66 0-113-47t-47-113q0-66 47-113t113-47q66 0 113 47t47 113q0 23-5.5 42.5T818-480L680-240h-92ZM320-500q25 0 42.5-17.5T380-560q0-25-17.5-42.5T320-620q-25 0-42.5 17.5T260-560q0 25 17.5 42.5T320-500Zm360 0q25 0 42.5-17.5T740-560q0-25-17.5-42.5T680-620q-25 0-42.5 17.5T620-560q0 25 17.5 42.5T680-500Zm0-60Zm-360 0Z"/></g></symbol><symbol id="handshake" viewBox="0 -960 960 960"><g fill="#1f1f1f"><path d="M475-160q4 0 8-2t6-4l328-328q12-12 17.5-27t5.5-30q0-16-5.5-30.5T817-607L647-777q-11-12-25.5-17.5T591-800q-15 0-30 5.5T534-777l-11 11 74 75q15 14 22 32t7 38q0 42-28.5 70.5T527-522q-20 0-38.5-7T456-550l-75-74-175 175q-3 3-4.5 6.5T200-435q0 8 6 14.5t14 6.5q4 0 8-2t6-4l136-136 56 56-135 136q-3 3-4.5 6.5T285-350q0 8 6 14t14 6q4 0 8-2t6-4l136-135 56 56-135 136q-3 2-4.5 6t-1.5 8q0 8 6 14t14 6q4 0 7.5-1.5t6.5-4.5l136-135 56 56-136 136q-3 3-4.5 6.5T454-180q0 8 6.5 14t14.5 6Zm-1 80q-37 0-65.5-24.5T375-166q-34-5-57-28t-28-57q-34-5-56.5-28.5T206-336q-38-5-62-33t-24-66q0-20 7.5-38.5T149-506l232-231 131 131q2 3 6 4.5t8 1.5q9 0 15-5.5t6-14.5q0-4-1.5-8t-4.5-6L398-777q-11-12-25.5-17.5T342-800q-15 0-30 5.5T285-777L144-635q-9 9-15 21t-8 24q-2 12 0 24.5t8 23.5l-58 58q-17-23-25-50.5T40-590q2-28 14-54.5T87-692l141-141q24-23 53.5-35t60.5-12q31 0 60.5 12t52.5 35l11 11 11-11q24-23 53.5-35t60.5-12q31 0 60.5 12t52.5 35l169 169q23 23 35 53t12 61q0 31-12 60.5T873-437L545-110q-14 14-32.5 22T474-80Zm-99-560Z"/></g></symbol><symbol id="key" viewBox="0 -960 960 960"><g fill="#1f1f1f"><path d="M280-400q-33 0-56.5-23.5T200-480q0-33 23.5-56.5T280-560q33 0 56.5 23.5T360-480q0 33-23.5 56.5T280-400Zm0 160q-100 0-170-70T40-480q0-100 70-170t170-70q67 0 121.5 33t86.5 87h352l120 120-180 180-80-60-80 60-85-60h-47q-32 54-86.5 87T280-240Zm0-80q56 0 98.5-34t56.5-86h125l58 41 82-61 71 55 75-75-40-40H435q-14-52-56.5-86T280-640q-66 0-113 47t-47 113q0 66 47 113t113 47Z"/></g></symbol><symbol id="partner_exchange" viewBox="0 -960 960 960"><g fill="#1f1f1f"><path d="M480-600 340-740l140-140 140 140-140 140ZM40-160v-160q0-34 23.5-57t56.5-23h131q20 0 38 10t29 27q29 39 71.5 61t90.5 22q49 0 91.5-22t70.5-61q13-17 30.5-27t36.5-10h131q34 0 57 23t23 57v160H640v-91q-35 25-75.5 38T480-200q-43 0-84-13.5T320-252v92H40Zm120-280q-50 0-85-35t-35-85q0-51 35-85.5t85-34.5q51 0 85.5 34.5T280-560q0 50-34.5 85T160-440Zm640 0q-50 0-85-35t-35-85q0-51 35-85.5t85-34.5q51 0 85.5 34.5T920-560q0 50-34.5 85T800-440Z"/></g></symbol><symbol id="redeem" viewBox="0 -960 960 960"><g fill="#1f1f1f"><path d="M160-280v80h640v-80H160Zm0-440h88q-5-9-6.5-19t-1.5-21q0-50 35-85t85-35q30 0 55.5 15.5T460-826l20 26 20-26q18-24 44-39t56-15q50 0 85 35t35 85q0 11-1.5 21t-6.5 19h88q33 0 56.5 23.5T880-640v440q0 33-23.5 56.5T800-120H160q-33 0-56.5-23.5T80-200v-440q0-33 23.5-56.5T160-720Zm0 320h640v-240H596l84 114-64 46-136-184-136 184-64-46 82-114H160v240Zm200-320q17 0 28.5-11.5T400-760q0-17-11.5-28.5T360-800q-17 0-28.5 11.5T320-760q0 17 11.5 28.5T360-720Zm240 0q17 0 28.5-11.5T640-760q0-17-11.5-28.5T600-800q-17 0-28.5 11.5T560-760q0 17 11.5 28.5T600-720Z"/></g></symbol><symbol id="savings" viewBox="0 -960 960 960"><g fill="#1f1f1f"><path d="M640-520q17 0 28.5-11.5T680-560q0-17-11.5-28.5T640-600q-17 0-28.5 11.5T600-560q0 17 11.5 28.5T640-520Zm-320-80h200v-80H320v80ZM180-120q-34-114-67-227.5T80-580q0-92 64-156t156-64h200q29-38 70.5-59t89.5-21q25 0 42.5 17.5T720-820q0 6-1.5 12t-3.5 11q-4 11-7.5 22.5T702-751l91 91h87v279l-113 37-67 224H480v-80h-80v80H180Zm60-80h80v-80h240v80h80l62-206 98-33v-141h-40L620-720q0-20 2.5-38.5T630-796q-29 8-51 27.5T547-720H300q-58 0-99 41t-41 99q0 98 27 191.5T240-200Zm240-298Z"/></g></symbol><symbol id="shutter_speed" viewBox="0 -960 960 960"><g fill="#1f1f1f"><path d="M360-840v-80h240v80H360ZM480-80q-75 0-140.5-28.5T225-186q-49-49-77-114.5T120-440q0-74 28.5-139.5T226-694q49-49 114.5-77.5T480-800q63 0 120 21t104 59l58-58 56 56-56 58q36 47 57 104t21 120q0 74-28 139.5T735-186q-49 49-114.5 77.5T480-80Zm0-360Zm0-80h268q-18-62-61.5-109T584-700L480-520Zm-70 40 134-232q-59-15-121.5-2.5T306-660l104 180Zm-206 80h206L276-632q-42 47-62.5 106.5T204-400Zm172 220 104-180H212q18 62 61.5 109T376-180Zm40 12q66 17 128 1.5T654-220L550-400 416-168Zm268-80q44-48 63.5-107.5T756-480H550l134 232Z"/></g></symbol><symbol id="video_library" viewBox="0 -960 960 960"><g fill="#1f1f1f"><path d="m460-380 280-180-280-180v360ZM320-240q-33 0-56.5-23.5T240-320v-480q0-33 23.5-56.5T320-880h480q33 0 56.5 23.5T880-800v480q0 33-23.5 56.5T800-240H320Zm0-80h480v-480H320v480ZM160-80q-33 0-56.5-23.5T80-160v-560h80v560h560v80H160Zm160-720v480-480Z"/></g></symbol><symbol id="wand_stars" viewBox="0 -960 960 960"><g fill="#1f1f1f"><path d="m176-120-56-56 301-302-181-45 198-123-17-234 179 151 216-88-87 217 151 178-234-16-124 198-45-181-301 301Zm24-520-80-80 80-80 80 80-80 80Zm355 197 48-79 93 7-60-71 35-86-86 35-71-59 7 92-79 49 90 22 23 90Zm165 323-80-80 80-80 80 80-80 80ZM569-570Z"/></g></symbol><symbol id="west" viewBox="0 -960 960 960"><g fill="#1f1f1f"><path d="M360-200 80-480l280-280 56 56-183 184h647v80H233l184 184-57 56Z"/></g></symbol><symbol id="workspace_premium" viewBox="0 -960 960 960"><g fill="#1f1f1f"><path d="m387-412 35-114-92-74h114l36-112 36 112h114l-93 74 35 114-92-71-93 71ZM240-40v-309q-38-42-59-96t-21-115q0-134 93-227t227-93q134 0 227 93t93 227q0 61-21 115t-59 96v309l-240-80-240 80Zm240-280q100 0 170-70t70-170q0-100-70-170t-170-70q-100 0-170 70t-70 170q0 100 70 170t170 70ZM320-159l160-41 160 41v-124q-35 20-75.5 31.5T480-240q-44 0-84.5-11.5T320-283v124Zm160-62Z"/></g></symbol></svg>